<svg width="16" height="16" viewBox="0 0 16 16" fill="none" xmlns="http://www.w3.org/2000/svg">
<rect width="16" height="16" fill="#E5E5E5"/>
<g clip-path="url(#clip0_0_1)">
<rect width="430" height="1222" transform="translate(-365 -660)" fill="white"/>
<rect x="-350" y="-646" width="400" height="1196" rx="40" fill="#FAFAFA"/>
<rect x="-334.5" y="-14.5" width="369" height="47" rx="11.5" fill="white" stroke="#EAEBEC"/>
<g clip-path="url(#clip1_0_1)">
<path d="M7.60616 0.0808477C7.85616 -0.0269492 8.14366 -0.0269492 8.39366 0.0808477L15.3937 3.08094C15.8312 3.26875 16.0749 3.7375 15.978 4.2C15.8843 4.66563 15.4749 4.97188 14.9718 5V5.25C14.9718 5.66563 14.6655 6 14.2218 6H1.72178C1.33553 6 0.971784 5.66563 0.971784 5.25V5C0.525221 4.97188 0.115784 4.66563 0.0203087 4.2C-0.0751538 3.7375 0.169565 3.26875 0.605846 3.08094L7.60616 0.0808477ZM7.99991 4C8.55303 4 8.99991 3.55313 8.99991 3C8.99991 2.44782 8.55303 2 7.99991 2C7.44678 2 6.99991 2.44782 6.99991 3C6.99991 3.55313 7.44678 4 7.99991 4ZM3.97178 13H5.22178V7H7.22178V13H8.74991V7H10.7499V13H11.9999V7H13.9999V13.1344C14.0187 13.1438 14.0374 13.1281 14.0562 13.1688L15.5562 14.1688C15.9218 14.4125 16.0843 14.8688 15.9562 15.2906C15.828 15.7125 15.4405 16 14.9999 16H0.971784C0.559284 16 0.170471 15.7125 0.0427837 15.2906C-0.084935 14.8688 0.0785025 14.4125 0.445221 14.1688L1.94522 13.1688C1.96303 13.1281 1.98147 13.1438 1.97178 13.1344V7H3.97178V13Z" fill="#BAC0BA"/>
</g>
</g>
<defs>
<clipPath id="clip0_0_1">
<rect width="430" height="1222" fill="white" transform="translate(-365 -660)"/>
</clipPath>
<clipPath id="clip1_0_1">
<rect width="16" height="16" fill="white"/>
</clipPath>
</defs>
</svg>
