<svg width="28" height="28" viewBox="0 0 28 28" fill="none" xmlns="http://www.w3.org/2000/svg">
<path d="M9.4974 3.95699C9.85389 3.24767 10.5799 2.79999 11.3738 2.79999H16.6436C17.4391 2.79999 18.1664 3.24947 18.522 3.96101L19.3409 5.59915H21.7069C23.6398 5.59915 25.2069 7.16615 25.2069 9.09915V14.3654C23.8746 13.2627 22.1648 12.6 20.3003 12.6C20.0081 12.6 19.7197 12.6163 19.4359 12.648C18.8311 10.2083 16.6268 8.39999 14.0003 8.39999C10.9075 8.39999 8.40025 10.9072 8.40025 14C8.40025 16.6267 10.2086 18.8308 12.6482 19.4356C12.6165 19.7194 12.6003 20.0078 12.6003 20.3C12.6003 21.5603 12.903 22.7498 13.4398 23.8H6.30683C4.37384 23.8 2.80683 22.233 2.80683 20.3V9.09915C2.80683 7.16614 4.37384 5.59915 6.30683 5.59915H8.67212L9.4974 3.95699Z" fill="#BAC0BA"/>
<path d="M14.0003 9.79999C15.9501 9.79999 17.5896 11.1287 18.0628 12.9301C15.6094 13.674 13.6742 15.6093 12.9304 18.0625C11.129 17.5894 9.80025 15.9499 9.80025 14C9.80025 11.6804 11.6807 9.79999 14.0003 9.79999Z" fill="#BAC0BA"/>
<path d="M26.6003 20.3C26.6003 23.7794 23.7797 26.6 20.3003 26.6C16.8209 26.6 14.0003 23.7794 14.0003 20.3C14.0003 16.8206 16.8209 14 20.3003 14C23.7797 14 26.6003 16.8206 26.6003 20.3ZM21.0003 17.5C21.0003 17.1135 20.6868 16.8 20.3003 16.8C19.9136 16.8 19.6003 17.1135 19.6003 17.5V19.6H17.5003C17.1136 19.6 16.8003 19.9135 16.8003 20.3C16.8003 20.6865 17.1136 21 17.5003 21H19.6003V23.1C19.6003 23.4865 19.9136 23.8 20.3003 23.8C20.6868 23.8 21.0003 23.4865 21.0003 23.1V21H23.1003C23.4868 21 23.8003 20.6865 23.8003 20.3C23.8003 19.9135 23.4868 19.6 23.1003 19.6H21.0003V17.5Z" fill="#BAC0BA"/>
</svg>
