<svg width="19" height="19" viewBox="0 0 19 19" fill="none" xmlns="http://www.w3.org/2000/svg">
<rect width="19" height="19" fill="#E5E5E5"/>
<g clip-path="url(#clip0_0_1)">
<rect width="430" height="1222" transform="translate(-364 -533)" fill="white"/>
<rect x="-349" y="-519" width="400" height="1196" rx="40" fill="#FAFAFA"/>
<rect x="-333.5" y="-13.5" width="369" height="47" rx="11.5" fill="white" stroke="#EAEBEC"/>
<path d="M9.50001 2.77083C5.78868 2.77083 2.77084 5.78867 2.77084 9.5C2.77084 13.2113 5.78868 16.2292 9.50001 16.2292C13.2113 16.2292 16.2292 13.2113 16.2292 9.5C16.2292 5.78867 13.2113 2.77083 9.50001 2.77083ZM14.6458 9.5C14.6458 10.3423 14.4368 11.1356 14.0774 11.8402L12.5487 10.3115C12.6184 10.0486 12.6651 9.77787 12.6651 9.5C12.6651 9.21896 12.616 8.95137 12.5487 8.69171L14.0782 7.16221C14.4384 7.866 14.6458 8.65925 14.6458 9.5ZM4.35418 9.5C4.35418 8.65767 4.56318 7.86441 4.92259 7.15983L6.45288 8.69012C6.3848 8.95137 6.33651 9.21896 6.33651 9.49921C6.33651 9.77866 6.38559 10.0455 6.45288 10.3075L4.9218 11.8386C4.56159 11.134 4.35418 10.3407 4.35418 9.5ZM6.78301 7.90083L5.3778 6.49562L6.49722 5.37621L7.90243 6.78141C7.44009 7.05454 7.05693 7.4385 6.78301 7.90083ZM5.37622 12.5028L6.77984 11.0992C6.91443 11.328 7.06643 11.5457 7.2588 11.7396C7.45118 11.9336 7.67047 12.0864 7.89768 12.2202L6.49564 13.6222L5.37622 12.5028ZM8.38059 10.6194C8.08214 10.3202 7.91747 9.92275 7.91826 9.5C7.91826 8.626 8.62759 7.91667 9.50001 7.91667C10.374 7.91667 11.0833 8.626 11.0833 9.50079C11.0841 9.92275 10.9195 10.3202 10.621 10.6186C10.0233 11.2179 8.97989 11.2179 8.38059 10.6194ZM13.6238 6.49721L12.2186 7.90242C11.9455 7.4385 11.5631 7.05612 11.1008 6.78141L12.5044 5.37779L13.6238 6.49721ZM11.7412 11.7372C11.932 11.5457 12.0856 11.3272 12.2194 11.1015L13.6214 12.5036L12.502 13.623L11.0992 12.2202C11.3296 12.0856 11.5481 11.9304 11.7412 11.7372ZM11.8402 4.92258L10.3099 6.45208C10.0502 6.38241 9.78105 6.33333 9.50001 6.33333C9.21897 6.33333 8.95139 6.38242 8.69172 6.4505L7.16222 4.921C7.86601 4.56079 8.65926 4.35337 9.50001 4.35337C10.3423 4.35417 11.1356 4.56317 11.8402 4.92258ZM7.15984 14.0774L8.69014 12.5471C8.95297 12.6168 9.22214 12.6651 9.50001 12.6651C9.77788 12.6651 10.0471 12.616 10.3083 12.5487L11.8378 14.0782C11.134 14.4384 10.3408 14.6458 9.50001 14.6458C8.65768 14.6458 7.86443 14.4368 7.15984 14.0774Z" fill="#BAC0BA"/>
</g>
<defs>
<clipPath id="clip0_0_1">
<rect width="430" height="1222" fill="white" transform="translate(-364 -533)"/>
</clipPath>
</defs>
</svg>
