<svg width="19" height="19" viewBox="0 0 19 19" fill="none" xmlns="http://www.w3.org/2000/svg">
<path d="M13.2184 6.15541C13.2184 4.10133 11.5535 2.43645 9.49913 2.43645C7.44476 2.43645 5.78018 4.10133 5.78018 6.15541C5.78018 9.09833 9.49913 13.4529 9.49913 13.4529C9.49913 13.4529 13.2184 9.08319 13.2184 6.15541ZM7.66504 5.93334C7.66504 4.92011 8.48649 4.09895 9.49943 4.09895C10.5124 4.09895 11.3338 4.92011 11.3338 5.93334C11.3338 6.94658 10.5124 7.76773 9.49943 7.76773C8.48649 7.76773 7.66504 6.94658 7.66504 5.93334Z" fill="#BAC0BA"/>
<path d="M9.49914 6.83525C9.99724 6.83525 10.401 6.43145 10.401 5.93334C10.401 5.43523 9.99724 5.03144 9.49914 5.03144C9.00103 5.03144 8.59723 5.43523 8.59723 5.93334C8.59723 6.43145 9.00103 6.83525 9.49914 6.83525Z" fill="#BAC0BA"/>
<path d="M11.6019 12.1594C11.2988 12.5973 11.0144 12.9791 10.7775 13.2855C13.1275 13.4265 14.6677 13.9338 15.2407 14.3115C14.5694 14.7541 12.5747 15.3763 9.49972 15.3763C6.42468 15.3763 4.42998 14.7538 3.75875 14.3115C4.33171 13.9341 5.87072 13.4271 8.2184 13.2857C7.9809 12.9794 7.6962 12.5979 7.39279 12.16C4.50093 12.4447 2.40054 13.3003 2.40054 14.3112C2.40054 15.5551 5.57918 16.5638 9.49972 16.5638C13.4205 16.5638 16.5986 15.5554 16.5986 14.3112C16.5992 13.2997 14.4964 12.4438 11.6019 12.1594Z" fill="#BAC0BA"/>
</svg>
