<svg width="16" height="16" viewBox="0 0 16 16" fill="none" xmlns="http://www.w3.org/2000/svg">
<g clip-path="url(#clip0_98_282)">
<path d="M4.75001 3.75C3.92157 3.75 3.25001 4.42156 3.25001 5.25C3.25001 6.07844 3.92157 6.75 4.75001 6.75C5.57845 6.75 6.25001 6.07844 6.25001 5.25C6.25001 4.42156 5.57814 3.75 4.75001 3.75ZM13.9719 1H1.97188C0.895322 1 -0.000274658 1.89531 -0.000274658 3V13C-0.000274658 14.1047 0.895038 15 1.9716 15H13.9716C15.0763 15 15.9716 14.1047 15.9716 13V3C15.9719 1.89531 15.1031 1 13.9719 1ZM14.4719 12.7906L10.1969 6.98125C10.1188 6.8375 9.94064 6.75 9.75001 6.75C9.55898 6.75 9.38064 6.8365 9.2747 6.98059L5.94345 11.4837L4.78439 10.0431C4.67685 9.90938 4.5052 9.83031 4.32282 9.83031C4.14026 9.83031 3.96876 9.90934 3.86095 10.0431L1.50095 12.9747C1.50095 12.9737 1.50095 12.9756 1.50095 12.9747L1.4997 3C1.4997 2.72431 1.72401 2.5 1.9997 2.5H13.9997C14.2754 2.5 14.4997 2.72431 14.4997 3V12.7906H14.4719Z" fill="#BAC0BA"/>
</g>
<defs>
<clipPath id="clip0_98_282">
<rect width="16" height="16" fill="white"/>
</clipPath>
</defs>
</svg>
