<svg width="16" height="14" viewBox="0 0 16 14" fill="none" xmlns="http://www.w3.org/2000/svg">
<rect width="16" height="14" fill="#E5E5E5"/>
<g clip-path="url(#clip0_0_1)">
<rect width="430" height="1222" transform="translate(-365 -788)" fill="white"/>
<rect x="-350" y="-774" width="400" height="1196" rx="40" fill="#FAFAFA"/>
<rect x="-334.5" y="-16.5" width="369" height="47" rx="11.5" fill="white" stroke="#EAEBEC"/>
<g clip-path="url(#clip1_0_1)">
<path d="M8 0C6.15833 0 4.66667 1.46918 4.66667 3.28125C4.66667 4.60414 5.135 4.97383 7.65833 8.57227C7.82381 8.80753 8.1775 8.80753 8.34306 8.57227C10.8639 4.97383 11.3333 4.60469 11.3333 3.28125C11.3333 1.46918 9.84167 0 8 0ZM8 4.8125C7.26389 4.8125 6.66667 4.22461 6.66667 3.5C6.66667 2.77539 7.26389 2.1875 8 2.1875C8.73556 2.1875 9.33333 2.77621 9.33333 3.5C9.33333 4.22379 8.73611 4.8125 8 4.8125ZM0.279444 6.22344C0.110667 6.28906 0 6.45039 0 6.62812V13.5598C0 13.8693 0.319167 14.0804 0.611111 13.9655L4.44444 12.25V5.50703C4.23611 5.1625 4.08889 4.86719 3.98333 4.58008L0.279444 6.22344ZM9.07222 9.07266C8.83056 9.41719 8.42778 9.625 8 9.625C7.57167 9.625 7.17056 9.41812 6.92611 9.07047C6.47778 8.43008 5.46944 7.01641 5.33333 6.825V12.2254L10.6667 14V6.825C10.5306 7.01641 9.52222 8.43008 9.07222 9.07266ZM15.3917 4.40781L11.5556 6.125V14L15.7194 12.1518C15.8889 12.0613 16 11.9246 16 11.7469V4.8125C16 4.50352 15.6833 4.26836 15.3917 4.40781Z" fill="#BAC0BA"/>
</g>
</g>
<defs>
<clipPath id="clip0_0_1">
<rect width="430" height="1222" fill="white" transform="translate(-365 -788)"/>
</clipPath>
<clipPath id="clip1_0_1">
<rect width="16" height="14" fill="white"/>
</clipPath>
</defs>
</svg>
