<svg width="12" height="15" viewBox="0 0 12 15" fill="none" xmlns="http://www.w3.org/2000/svg">
<path d="M10.0625 6.6625V4.0625C10.0625 1.7875 8.275 0 6 0C3.725 0 1.9375 1.7875 1.9375 4.0625V6.6625C0.9625 6.9875 0.3125 7.88125 0.3125 8.9375V12.1875C0.3125 13.5688 1.36875 14.625 2.75 14.625H9.25C10.6313 14.625 11.6875 13.5688 11.6875 12.1875V8.9375C11.6875 7.88125 11.0375 6.9875 10.0625 6.6625ZM6.8125 11.375C6.8125 11.8625 6.4875 12.1875 6 12.1875C5.5125 12.1875 5.1875 11.8625 5.1875 11.375V9.75C5.1875 9.2625 5.5125 8.9375 6 8.9375C6.4875 8.9375 6.8125 9.2625 6.8125 9.75V11.375ZM8.4375 6.5H3.5625V4.0625C3.5625 2.68125 4.61875 1.625 6 1.625C7.38125 1.625 8.4375 2.68125 8.4375 4.0625V6.5Z" fill="#BAC0BA"/>
</svg>
