<svg width="20" height="20" viewBox="0 0 20 20" fill="none" xmlns="http://www.w3.org/2000/svg">
<path d="M5.625 16.5625C5.62534 16.9975 5.79831 17.4146 6.10591 17.7222C6.41351 18.0298 6.83061 18.2028 7.26562 18.2031H12.7344C12.9498 18.2032 13.1632 18.1608 13.3623 18.0784C13.5614 17.9959 13.7422 17.8751 13.8946 17.7227C14.047 17.5704 14.1678 17.3895 14.2502 17.1904C14.3327 16.9913 14.3751 16.778 14.375 16.5625V16.0156H5.625V16.5625Z" fill="#BAC0BA"/>
<path d="M12.7344 1.79688H7.26562C7.05016 1.79682 6.83679 1.83921 6.63771 1.92164C6.43864 2.00407 6.25775 2.12491 6.1054 2.27727C5.95304 2.42963 5.83219 2.61051 5.74976 2.80959C5.66734 3.00867 5.62494 3.22203 5.625 3.4375V14.9219H14.375V3.4375C14.3753 3.22197 14.3331 3.0085 14.2507 2.80932C14.1684 2.61014 14.0475 2.42916 13.8951 2.27676C13.7427 2.12435 13.5617 2.00352 13.3626 1.92117C13.1634 1.83882 12.9499 1.79659 12.7344 1.79688ZM11.0938 3.98438H8.90625C8.76121 3.98438 8.62211 3.92676 8.51955 3.8242C8.41699 3.72164 8.35938 3.58254 8.35938 3.4375C8.35938 3.29246 8.41699 3.15336 8.51955 3.0508C8.62211 2.94824 8.76121 2.89063 8.90625 2.89063H11.0938C11.2388 2.89063 11.3779 2.94824 11.4804 3.0508C11.583 3.15336 11.6406 3.29246 11.6406 3.4375C11.6406 3.58254 11.583 3.72164 11.4804 3.8242C11.3779 3.92676 11.2388 3.98438 11.0938 3.98438Z" fill="#BAC0BA"/>
</svg>
