<svg width="26" height="26" viewBox="0 0 26 26" fill="none" xmlns="http://www.w3.org/2000/svg">
<g clip-path="url(#clip0_98_272)">
<path fill-rule="evenodd" clip-rule="evenodd" d="M24.6589 4.10526H21.8947V1.34105C21.8947 0.602105 21.2926 0 20.5537 0H20.5126C19.76 0 19.1579 0.602105 19.1579 1.34105V4.10526H16.4074C15.6684 4.10526 15.0663 4.70737 15.0526 5.44632V5.48737C15.0526 6.24 15.6547 6.84211 16.4074 6.84211H19.1579V9.59263C19.1579 10.3316 19.76 10.9474 20.5126 10.9337H20.5537C21.2926 10.9337 21.8947 10.3316 21.8947 9.59263V6.84211H24.6589C25.3979 6.84211 26 6.24 26 5.50105V5.44632C26 4.70737 25.3979 4.10526 24.6589 4.10526ZM17.7895 9.59263V8.21053H16.4074C15.6821 8.21053 14.9979 7.92316 14.4779 7.41684C13.9716 6.89684 13.6842 6.21263 13.6842 5.44632C13.6842 4.95368 13.8211 4.50211 14.0537 4.10526H2.73684C1.23158 4.10526 0 5.33684 0 6.84211V23.2632C0 24.7684 1.23158 26 2.73684 26H19.1579C20.6632 26 21.8947 24.7684 21.8947 23.2632V11.9326C21.4842 12.1653 21.0189 12.3158 20.4989 12.3158C19.0074 12.3021 17.7895 11.0842 17.7895 9.59263ZM17.7347 23.2632H4.10526C3.54421 23.2632 3.21579 22.62 3.55789 22.1684L6.26737 18.5695C6.55474 18.1863 7.11579 18.2137 7.38947 18.5968L9.57895 21.8947L13.1505 17.1326C13.4242 16.7768 13.9579 16.7632 14.2316 17.1189L18.2684 22.1547C18.6242 22.6063 18.3095 23.2632 17.7347 23.2632Z" fill="#242824" fill-opacity="0.2"/>
</g>
<defs>
<clipPath id="clip0_98_272">
<rect width="26" height="26" fill="white"/>
</clipPath>
</defs>
</svg>
