<svg width="16" height="16" viewBox="0 0 16 16" fill="none" xmlns="http://www.w3.org/2000/svg">
<rect width="16" height="16" fill="#E5E5E5"/>
<g clip-path="url(#clip0_0_1)">
<rect width="430" height="1222" transform="translate(-365 -597)" fill="white"/>
<rect x="-350" y="-583" width="400" height="1196" rx="40" fill="#FAFAFA"/>
<rect x="-334.5" y="-14.5" width="369" height="47" rx="11.5" fill="white" stroke="#EAEBEC"/>
<g clip-path="url(#clip1_0_1)">
<path d="M14.8906 7.4375V6.66563C14.8906 6.37813 14.6594 6.14687 14.3719 6.14687H13.1719C13.0437 5.62812 12.8375 5.1375 12.5688 4.69063L13.4187 3.84063C13.6219 3.6375 13.6219 3.30938 13.4187 3.10625L12.3281 2.01562C12.125 1.8125 11.7969 1.8125 11.5938 2.01562L10.7437 2.86562C10.2969 2.59687 9.80938 2.39062 9.2875 2.2625V1.06562C9.2875 0.778125 9.05625 0.546875 8.76875 0.546875H7.22813C6.94063 0.546875 6.70937 0.778125 6.70937 1.06562V2.26562C6.19062 2.39375 5.7 2.6 5.25313 2.86875L4.40625 2.02187C4.20312 1.81875 3.875 1.81875 3.67188 2.02187L2.58125 3.10938C2.37812 3.3125 2.37812 3.64062 2.58125 3.84375L3.43125 4.69375C3.1625 5.14062 2.95625 5.63125 2.82812 6.15H1.62812C1.34062 6.15 1.10938 6.38125 1.10938 6.66875V7.4375H4.45625C4.45625 5.47813 6.04375 3.89062 8.00313 3.89062C9.9625 3.89062 11.5469 5.48125 11.5469 7.4375H14.8906Z" fill="#BAC0BA"/>
<path d="M10.1781 7.4375C10.1781 6.23438 9.20312 5.25938 7.99999 5.25938C6.79687 5.25938 5.82187 6.23438 5.82187 7.4375C5.82187 8.64063 6.79687 9.61563 7.99999 9.61563C9.20312 9.61563 10.1781 8.64063 10.1781 7.4375Z" fill="#BAC0BA"/>
<path d="M4.71875 8.58125C4.71875 8.45938 4.62188 8.3625 4.5 8.3625H2.59687C2.475 8.3625 2.37812 8.45938 2.37812 8.58125V11.7344H1.48438C1.3625 11.7344 1.26562 11.8313 1.26562 11.9531V13.2375C1.3375 13.225 1.40937 13.2188 1.48438 13.2188C1.55937 13.2188 1.63125 13.225 1.70312 13.2375V12.1719H2.59687C2.71875 12.1719 2.81562 12.075 2.81562 11.9531V8.8H4.5C4.62188 8.8 4.71875 8.70313 4.71875 8.58125Z" fill="#BAC0BA"/>
<path d="M1.48437 15.45C1.9797 15.45 2.38124 15.0485 2.38124 14.5531C2.38124 14.0578 1.9797 13.6562 1.48437 13.6562C0.989039 13.6562 0.587494 14.0578 0.587494 14.5531C0.587494 15.0485 0.989039 15.45 1.48437 15.45Z" fill="#BAC0BA"/>
<path d="M4.01562 15.45C4.51095 15.45 4.91249 15.0485 4.91249 14.5531C4.91249 14.0578 4.51095 13.6562 4.01562 13.6562C3.52029 13.6562 3.11874 14.0578 3.11874 14.5531C3.11874 15.0485 3.52029 15.45 4.01562 15.45Z" fill="#BAC0BA"/>
<path d="M5.09374 9.69063H4.01874C3.89686 9.69063 3.79999 9.7875 3.79999 9.90938V13.2375C3.87186 13.225 3.94374 13.2188 4.01874 13.2188C4.09374 13.2188 4.16561 13.225 4.23749 13.2375V10.1281H5.09374C5.21561 10.1281 5.31249 10.0313 5.31249 9.90938C5.31249 9.7875 5.21249 9.69063 5.09374 9.69063Z" fill="#BAC0BA"/>
<path d="M6.69061 15.45C7.18594 15.45 7.58748 15.0485 7.58748 14.5531C7.58748 14.0578 7.18594 13.6562 6.69061 13.6562C6.19528 13.6562 5.79373 14.0578 5.79373 14.5531C5.79373 15.0485 6.19528 15.45 6.69061 15.45Z" fill="#BAC0BA"/>
<path d="M6.90936 13.2375V10.2937C6.90936 10.1719 6.81249 10.075 6.69061 10.075C6.56874 10.075 6.47186 10.1719 6.47186 10.2937V13.2375C6.54374 13.225 6.61561 13.2187 6.69061 13.2187C6.76561 13.2187 6.83749 13.225 6.90936 13.2375Z" fill="#BAC0BA"/>
<path d="M14.2969 13.2375C14.3688 13.225 14.4406 13.2188 14.5156 13.2188C14.5906 13.2188 14.6625 13.225 14.7344 13.2375V11.9531C14.7344 11.8313 14.6375 11.7344 14.5156 11.7344H13.6219V8.58125C13.6219 8.45938 13.525 8.3625 13.4031 8.3625H11.5C11.3781 8.3625 11.2812 8.45938 11.2812 8.58125C11.2812 8.70313 11.3781 8.8 11.5 8.8H13.1844V11.9531C13.1844 12.075 13.2812 12.1719 13.4031 12.1719H14.2969V13.2375Z" fill="#BAC0BA"/>
<path d="M14.5156 15.45C15.0109 15.45 15.4125 15.0485 15.4125 14.5531C15.4125 14.0578 15.0109 13.6562 14.5156 13.6562C14.0203 13.6562 13.6187 14.0578 13.6187 14.5531C13.6187 15.0485 14.0203 15.45 14.5156 15.45Z" fill="#BAC0BA"/>
<path d="M11.9844 15.45C12.4797 15.45 12.8812 15.0485 12.8812 14.5531C12.8812 14.0578 12.4797 13.6562 11.9844 13.6562C11.489 13.6562 11.0875 14.0578 11.0875 14.5531C11.0875 15.0485 11.489 15.45 11.9844 15.45Z" fill="#BAC0BA"/>
<path d="M11.7656 13.2375C11.8375 13.225 11.9094 13.2188 11.9844 13.2188C12.0594 13.2188 12.1313 13.225 12.2031 13.2375V9.90938C12.2031 9.7875 12.1063 9.69063 11.9844 9.69063H10.9062C10.7844 9.69063 10.6875 9.7875 10.6875 9.90938C10.6875 10.0313 10.7844 10.1281 10.9062 10.1281H11.7625V13.2375H11.7656Z" fill="#BAC0BA"/>
<path d="M9.30938 15.45C9.80471 15.45 10.2063 15.0485 10.2063 14.5531C10.2063 14.0578 9.80471 13.6562 9.30938 13.6562C8.81405 13.6562 8.41251 14.0578 8.41251 14.5531C8.41251 15.0485 8.81405 15.45 9.30938 15.45Z" fill="#BAC0BA"/>
<path d="M9.09061 10.2937V13.2375C9.16248 13.225 9.23436 13.2187 9.30936 13.2187C9.38436 13.2187 9.45623 13.225 9.52811 13.2375V10.2937C9.52811 10.1719 9.43123 10.075 9.30936 10.075C9.19061 10.075 9.09061 10.175 9.09061 10.2937Z" fill="#BAC0BA"/>
</g>
</g>
<defs>
<clipPath id="clip0_0_1">
<rect width="430" height="1222" fill="white" transform="translate(-365 -597)"/>
</clipPath>
<clipPath id="clip1_0_1">
<rect width="16" height="16" fill="white"/>
</clipPath>
</defs>
</svg>
